# xmcd
#
# Track frame offsets:
#	150
#	28742
#	44428
#	58829
#	73769
#	83870
#	94379
#	107209
#	119862
#	142650
#	156580
#	166618
#	179818
#	186856
#	199891
#	209957
#	221788
#	237201
#	256243
#	277801
#	293744
#
# Disc length: 4074 seconds
#
# Revision: 1
# Processed by: cddbd v1.5.2PL0 Copyright (c) Steve Scherf et al.
# Submitted via: audiograbber 1.83.01
#
DISCID=530fe815
DTITLE=V/A - Steelcap Love Affair
DYEAR=2013
DGENRE=Punk
TTITLE0=Berliner Weisse - Fahnen im Wind
TTITLE1=Perkele - Hang em High
TTITLE2=Rotz and Wasser - Leben Lassen
TTITLE3=Shock waves - Another girl
TTITLE4=Foiernacht - Lieder des Wahnsinns
TTITLE5=City Saints - Slippery Joe
TTITLE6=Klasse Kriminale - Rivedrete
TTITLE7=Roughnecks - Schöne Welt
TTITLE8=Prins Carl - Scars
TTITLE9=Butcher Boys - Only the strong survive
TTITLE10=Frühstückspause - Die boesen Kucker
TTITLE11=The Clichés - Skinhead
TTITLE12=Bo Labar - Hara Al HaYad
TTITLE13=Mette Nenschen - Police B.
TTITLE14=Madtown Mulligan - Bombs Away
TTITLE15=Panikamcher - Dieses Lied
TTITLE16=The Corps - All my money
TTITLE17=Grober Knüppel - Was  Ich Will
TTITLE18=Saturday's Heroes - Side by Side
TTITLE19=Albert Fish - We Stand Together
TTITLE20=Hoiter Dipoiter - Schnaps
EXTD=
EXTT0=
EXTT1=
EXTT2=
EXTT3=
EXTT4=
EXTT5=
EXTT6=
EXTT7=
EXTT8=
EXTT9=
EXTT10=
EXTT11=
EXTT12=
EXTT13=
EXTT14=
EXTT15=
EXTT16=
EXTT17=
EXTT18=
EXTT19=
EXTT20=
PLAYORDER=
